<?xml version="1.0" encoding="utf-8"?>
<!-- Generator: Adobe Illustrator 24.1.1, SVG Export Plug-In . SVG Version: 6.00 Build 0)  -->
<svg version="1.1" id="Layer_1" xmlns="http://www.w3.org/2000/svg" xmlns:xlink="http://www.w3.org/1999/xlink" x="0px" y="0px"
	 viewBox="0 0 2695.1 438.8" style="enable-background:new 0 0 2695.1 438.8;" xml:space="preserve">
<style type="text/css">
	.st0{fill:url(#SVGID_1_);}
	.st1{fill:url(#SVGID_2_);}
	.st2{fill:url(#SVGID_3_);}
	.st3{fill:url(#SVGID_4_);}
</style>
<path d="M6.8,260.2c0-14.9,1.6-29.4,3.1-44.3c4.4-43.9,12.4-87.1,31.9-127.2C62.3,46.2,91.6,13.1,140,2.3c5.5-1.3,11.2-1.8,16.8-2
	h336.5c0.6,0,1.1,0.5,1,1.1c-3,33.5-6,66.1-8.9,99.9c0,0.5-0.5,0.9-1,0.9h-8.6c-98.2,0-196.4,0.1-294.5-0.2
	c-13.3-0.1-22.5,5.4-27.4,16.7c-5.4,12.1-9.1,24.9-14,39.4c-0.2,0.7,0.3,1.4,1,1.4h339c0.6,0,1.1,0.5,1,1.1
	c-3,36.7-5.9,72.1-8.9,108.5c0,0.5-0.5,0.9-1,0.9H138c-0.6,0-1,0.5-1,1c0.1,17.9,2,34.3,10.3,49.3c3.8,6.9,9.4,10.4,18.2,10.4
	c96.4-0.4,192.6-0.3,288.9-0.3h9.4c0.6,0,1.1,0.5,1,1.1c-3.3,35.2-6.5,69.7-9.8,105.4c-0.1,0.5-0.5,0.9-1,0.9h-21.7
	c-114.9,0.4-229.9,1-344.9,0.9c-19.3,0-34.1-11.2-45.6-26.1C25.1,391,17.6,365.5,13.4,339c-3-18.7-5.8-37.8-6.7-56.3
	C6.7,282.6,6.8,269.6,6.8,260.2z"/>
<path d="M1137.1,436.8c13-145.4,25.9-290.6,39-436.8c15.7,0,30.8,0,46,0c99,0.2,198,0.6,296.9,0.4c15.9,0,31.3,0.7,46.6,5.5
	c35.9,11.4,48.7,44.4,45.8,75.4c-2.6,27.3-5.9,54.6-8.4,81.9c-5.2,55.2-10.1,110.5-15.1,165.7c-3,32.7-6.2,65.3-8.7,98
	c-0.6,8.3-2.8,11.3-11.6,11.2c-37.3-0.4-74.7,0.1-112.1,0.2c-2.3,0-4.7-0.3-7.9-0.6c1.3-15,2.6-29.5,3.8-44
	c4.6-52.6,9.3-105.2,14-157.8c2.4-26.8,4.8-53.7,7.1-80.5c0.2-2.1,0.5-4.3,0.4-6.4c-0.3-21.5-7.8-30.9-30.1-30.5
	c-45.3,0.8-90.7,0.3-136.1,0.4c-2.9,0-5.7,0-9.2,0c-2.8,30.3-5.4,59.8-8.2,89.2c-5.2,55.5-10.5,111-15.7,166.5
	c-1.8,19.1-3.5,38.2-5,57.4c-0.3,4-1,6.5-5.9,6.4c-41.1-0.3-82.2-0.4-123.2-0.5C1139,437.9,1138.5,437.5,1137.1,436.8z"/>
<path d="M966.7,86.5c-4.1-32.3-18.5-59.5-48.9-75.2C903.6,4,888.6,1.2,873,0.3H514c-12.7,146.7-25.3,292.2-37.9,437.4h130.8
	c4.2-46,8.2-90.5,12.3-135.8h10.1c68,0,136.1,0.4,204-0.2c44.9-0.4,80.5-19.7,103.5-58.7C965.2,194.6,973.6,141.6,966.7,86.5z
	 M812.7,185.1h-183c2-23.2,3.8-45.4,5.9-67.6c1.4-15.4,1.5-15.4,17.2-15.3c55.2,0.1,110.4,0.2,165.6,0.2c14.7,0,27.5,3.3,34.6,18
	C867.3,150.5,845.8,185.1,812.7,185.1z"/>
<path d="M970.5,437.2c8.9-99.9,17.7-199.6,26.6-299.7c43.5,0,86.6,0,130.3,0c-1.2,15.3-2.3,30.4-3.6,45.4
	c-5.7,64-11.4,128-17.2,191.9c-1.7,18.9-3.5,37.7-5.2,56.5c-0.4,4-1,7.1-6.3,7c-40.3-0.3-80.5-0.3-120.8-0.4
	C973.3,438,972.3,437.6,970.5,437.2z"/>
<linearGradient id="SVGID_1_" gradientUnits="userSpaceOnUse" x1="999.7195" y1="51.5919" x2="1138.1354" y2="51.5919">
	<stop  offset="0" style="stop-color:#3FA2DF"/>
	<stop  offset="1" style="stop-color:#2483BE"/>
</linearGradient>
<polygon class="st0" points="1008.7,0 1138.1,0 1132.9,56.3 999.7,103.2 "/>
<g>
	<linearGradient id="SVGID_2_" gradientUnits="userSpaceOnUse" x1="1610.3771" y1="219.1924" x2="2066.8401" y2="219.1924">
		<stop  offset="0" style="stop-color:#3FA2DF"/>
		<stop  offset="1" style="stop-color:#2483BE"/>
	</linearGradient>
	<path class="st1" d="M1610.4,437.8l29.4-297.6C1653.4,50.7,1706.8,4,1800.2,0l146.5,0.3c84.9,5.8,124.8,52.1,119.6,138.9
		l-29.7,299.1h-115l13.3-133l-192.3-0.9l-13,133.3H1610.4z M1759.1,149.6l-4.9,46.5h192l4-36.5c6.2-33.7-3.5-52.6-29.1-56.5
		l-116.2,0.3C1773.9,104.2,1758.7,119.6,1759.1,149.6z"/>
	<linearGradient id="SVGID_3_" gradientUnits="userSpaceOnUse" x1="2055.3418" y1="219.8169" x2="2527.4248" y2="219.8169">
		<stop  offset="0" style="stop-color:#3FA2DF"/>
		<stop  offset="1" style="stop-color:#2483BE"/>
	</linearGradient>
	<path class="st2" d="M2098.6,1.3h300.2c94.6,4.8,137,54.7,127.2,149.9c-9.8,95.1-59.5,145.4-149.2,150.8h-178.4l-13.6,136.1
		l-129.5,0.3L2098.6,1.3z M2211.8,186.4l160.5-0.6c23.7,0.2,37.4-11.3,41-34.5c3.6-23.2-7.6-36.8-33.5-40.7h-160.5L2211.8,186.4z"/>
	<linearGradient id="SVGID_4_" gradientUnits="userSpaceOnUse" x1="2516.2375" y1="219.8169" x2="2688.4446" y2="219.8169">
		<stop  offset="0" style="stop-color:#3FA2DF"/>
		<stop  offset="1" style="stop-color:#2483BE"/>
	</linearGradient>
	<path class="st3" d="M2562,1.3h126.4l-43,437.1h-129.2L2562,1.3z"/>
</g>
</svg>
